<?xml version="1.0" encoding="utf-8" ?>
<svg baseProfile="tiny" height="429px" version="1.2" width="862px" xmlns="http://www.w3.org/2000/svg" xmlns:ev="http://www.w3.org/2001/xml-events" xmlns:xlink="http://www.w3.org/1999/xlink"><defs /><path d="M 690 7 L 689 8 L 679 8 L 678 9 L 673 9 L 672 10 L 668 10 L 667 11 L 664 11 L 663 12 L 661 12 L 660 13 L 657 13 L 656 14 L 654 14 L 653 15 L 651 15 L 650 16 L 649 16 L 648 17 L 646 17 L 645 18 L 644 18 L 643 19 L 642 19 L 641 20 L 640 20 L 639 21 L 638 21 L 637 22 L 636 22 L 635 23 L 634 23 L 633 24 L 632 24 L 630 26 L 629 26 L 627 28 L 626 28 L 624 30 L 623 30 L 621 32 L 620 32 L 616 36 L 615 36 L 611 40 L 610 39 L 610 30 L 609 29 L 609 26 L 608 25 L 608 24 L 607 23 L 607 22 L 602 17 L 601 17 L 597 13 L 596 13 L 595 12 L 594 12 L 593 11 L 591 11 L 590 10 L 577 10 L 576 11 L 571 11 L 570 12 L 566 12 L 565 13 L 562 13 L 561 14 L 559 14 L 558 15 L 556 15 L 555 16 L 553 16 L 552 17 L 550 17 L 549 18 L 548 18 L 547 19 L 545 19 L 544 20 L 543 20 L 542 21 L 541 21 L 540 22 L 539 22 L 538 23 L 537 23 L 536 24 L 535 24 L 534 25 L 533 25 L 532 26 L 531 26 L 530 27 L 529 27 L 528 28 L 527 28 L 526 29 L 525 29 L 523 31 L 522 31 L 521 32 L 520 32 L 518 34 L 517 34 L 516 35 L 515 35 L 513 37 L 512 37 L 509 40 L 508 40 L 506 42 L 505 42 L 502 45 L 501 45 L 497 49 L 496 49 L 488 57 L 487 57 L 482 62 L 482 63 L 475 70 L 475 71 L 471 75 L 471 76 L 469 78 L 469 79 L 466 82 L 466 83 L 465 84 L 465 85 L 463 87 L 463 88 L 461 90 L 461 91 L 460 92 L 460 93 L 459 94 L 459 95 L 457 97 L 457 98 L 456 99 L 456 100 L 455 101 L 455 102 L 454 103 L 454 104 L 453 105 L 453 107 L 452 108 L 452 109 L 451 110 L 451 111 L 450 112 L 450 114 L 449 115 L 449 116 L 448 117 L 448 119 L 447 120 L 447 122 L 446 123 L 446 125 L 445 126 L 445 128 L 444 129 L 444 131 L 443 132 L 443 135 L 442 136 L 442 139 L 441 140 L 441 143 L 440 144 L 440 147 L 439 148 L 439 152 L 438 153 L 438 158 L 437 159 L 437 164 L 436 165 L 436 172 L 435 173 L 435 183 L 434 184 L 434 233 L 435 234 L 435 245 L 436 246 L 436 254 L 437 255 L 437 261 L 438 262 L 438 267 L 439 268 L 439 272 L 440 273 L 440 277 L 441 278 L 441 281 L 442 282 L 442 285 L 443 286 L 443 288 L 444 289 L 444 292 L 445 293 L 445 295 L 446 296 L 446 298 L 447 299 L 447 301 L 448 302 L 448 304 L 449 305 L 449 307 L 450 308 L 450 310 L 451 311 L 451 312 L 452 313 L 452 314 L 453 315 L 453 317 L 454 318 L 454 319 L 455 320 L 455 321 L 456 322 L 456 323 L 457 324 L 457 325 L 458 326 L 458 327 L 459 328 L 459 329 L 460 330 L 460 331 L 461 332 L 461 333 L 462 334 L 462 335 L 464 337 L 464 338 L 465 339 L 465 340 L 467 342 L 467 343 L 469 345 L 469 346 L 471 348 L 471 349 L 474 352 L 474 353 L 476 355 L 476 356 L 478 358 L 478 359 L 482 363 L 482 364 L 487 369 L 487 370 L 503 386 L 504 386 L 509 391 L 510 391 L 513 394 L 514 394 L 517 397 L 518 397 L 519 398 L 520 398 L 522 400 L 523 400 L 525 402 L 526 402 L 527 403 L 528 403 L 529 404 L 530 404 L 531 405 L 532 405 L 534 407 L 535 407 L 536 408 L 537 408 L 538 409 L 539 409 L 540 410 L 541 410 L 542 411 L 544 411 L 545 412 L 546 412 L 547 413 L 548 413 L 549 414 L 551 414 L 552 415 L 554 415 L 555 416 L 556 416 L 557 417 L 559 417 L 560 418 L 563 418 L 564 419 L 566 419 L 567 420 L 570 420 L 571 421 L 575 421 L 576 422 L 580 422 L 581 423 L 586 423 L 587 424 L 598 424 L 599 425 L 604 425 L 605 424 L 606 424 L 607 423 L 608 423 L 608 422 L 609 421 L 609 418 L 610 417 L 610 416 L 609 415 L 610 414 L 610 397 L 609 396 L 610 395 L 610 391 L 609 390 L 609 389 L 610 388 L 609 387 L 609 386 L 610 385 L 610 383 L 611 382 L 615 382 L 616 383 L 617 383 L 620 386 L 621 386 L 627 392 L 628 392 L 639 403 L 640 403 L 646 409 L 647 409 L 649 411 L 650 411 L 652 413 L 653 413 L 654 414 L 655 414 L 656 415 L 657 415 L 658 416 L 659 416 L 660 417 L 662 417 L 663 418 L 664 418 L 665 419 L 668 419 L 669 420 L 671 420 L 672 421 L 675 421 L 676 422 L 680 422 L 681 423 L 686 423 L 687 424 L 697 424 L 698 425 L 730 425 L 731 424 L 735 424 L 736 423 L 738 423 L 739 422 L 741 422 L 742 421 L 743 421 L 745 419 L 746 419 L 751 414 L 751 413 L 752 412 L 752 411 L 753 410 L 753 409 L 754 408 L 754 405 L 755 404 L 755 403 L 754 402 L 754 398 L 753 397 L 753 395 L 752 394 L 752 392 L 751 391 L 751 389 L 750 388 L 750 387 L 749 386 L 749 384 L 748 383 L 748 381 L 747 380 L 747 379 L 746 378 L 746 377 L 745 376 L 745 375 L 744 374 L 744 372 L 743 371 L 743 370 L 742 369 L 742 368 L 741 367 L 741 366 L 740 365 L 740 364 L 739 363 L 739 362 L 738 361 L 738 360 L 737 359 L 737 357 L 735 355 L 735 354 L 734 353 L 734 352 L 733 351 L 733 350 L 732 349 L 732 348 L 731 347 L 731 346 L 730 345 L 730 344 L 729 343 L 729 342 L 728 341 L 728 340 L 726 338 L 726 337 L 725 336 L 725 335 L 724 334 L 724 333 L 723 332 L 723 331 L 722 330 L 722 329 L 720 327 L 720 326 L 719 325 L 719 324 L 718 323 L 718 322 L 716 320 L 716 319 L 715 318 L 715 317 L 713 315 L 713 314 L 712 313 L 712 312 L 710 310 L 710 309 L 709 308 L 709 307 L 707 305 L 707 304 L 705 302 L 705 301 L 703 299 L 703 298 L 702 297 L 702 296 L 700 294 L 700 293 L 698 291 L 698 290 L 697 289 L 697 288 L 694 285 L 694 284 L 692 282 L 692 281 L 690 279 L 690 278 L 687 275 L 687 274 L 685 272 L 685 271 L 682 268 L 682 267 L 680 265 L 680 264 L 676 260 L 676 259 L 672 255 L 672 254 L 666 248 L 666 247 L 654 235 L 653 235 L 648 230 L 647 230 L 644 227 L 643 227 L 639 223 L 638 223 L 635 220 L 634 220 L 630 216 L 630 214 L 634 210 L 635 210 L 638 207 L 639 207 L 641 205 L 642 205 L 645 202 L 646 202 L 650 198 L 651 198 L 655 194 L 656 194 L 661 189 L 662 189 L 676 175 L 676 174 L 682 168 L 682 167 L 686 163 L 686 162 L 690 158 L 690 157 L 693 154 L 693 153 L 696 150 L 696 149 L 698 147 L 698 146 L 700 144 L 700 143 L 704 139 L 704 138 L 705 137 L 705 136 L 708 133 L 708 132 L 710 130 L 710 129 L 712 127 L 712 126 L 713 125 L 713 124 L 715 122 L 715 121 L 717 119 L 717 118 L 718 117 L 718 116 L 720 114 L 720 113 L 722 111 L 722 110 L 724 108 L 724 107 L 725 106 L 725 105 L 726 104 L 726 103 L 728 101 L 728 100 L 730 98 L 730 97 L 731 96 L 731 95 L 732 94 L 732 93 L 733 92 L 733 91 L 735 89 L 735 88 L 736 87 L 736 86 L 737 85 L 737 84 L 738 83 L 738 82 L 739 81 L 739 80 L 740 79 L 740 78 L 741 77 L 741 76 L 742 75 L 742 74 L 743 73 L 743 72 L 744 71 L 744 70 L 745 69 L 745 67 L 746 66 L 746 65 L 747 64 L 747 63 L 748 62 L 748 60 L 749 59 L 749 58 L 750 57 L 750 55 L 751 54 L 751 53 L 752 52 L 752 49 L 753 48 L 753 45 L 754 44 L 754 37 L 755 36 L 755 35 L 754 34 L 754 29 L 753 28 L 753 26 L 751 24 L 751 23 L 747 19 L 746 19 L 745 18 L 744 18 L 739 13 L 738 13 L 737 12 L 736 12 L 735 11 L 733 11 L 732 10 L 729 10 L 728 9 L 723 9 L 722 8 L 712 8 L 711 7 Z M 469 227 L 470 226 L 572 226 L 573 227 L 594 227 L 595 228 L 595 328 L 596 329 L 596 338 L 595 339 L 592 339 L 591 338 L 587 338 L 586 337 L 584 337 L 583 336 L 581 336 L 580 335 L 579 335 L 578 334 L 576 334 L 575 333 L 574 333 L 573 332 L 572 332 L 571 331 L 570 331 L 569 330 L 568 330 L 567 329 L 566 329 L 564 327 L 563 327 L 562 326 L 561 326 L 559 324 L 558 324 L 556 322 L 555 322 L 550 317 L 549 317 L 545 313 L 544 313 L 536 305 L 535 305 L 517 287 L 517 286 L 504 273 L 504 272 L 503 272 L 502 271 L 502 270 L 496 264 L 496 263 L 488 255 L 488 254 L 478 244 L 478 243 L 472 237 L 472 236 L 467 231 L 467 228 L 468 227 Z M 592 97 L 593 96 L 594 97 L 594 203 L 593 204 L 567 204 L 566 205 L 505 205 L 504 204 L 472 204 L 471 203 L 480 194 L 481 194 L 494 181 L 494 180 L 495 179 L 496 179 L 496 178 L 504 170 L 504 169 L 513 160 L 513 159 L 528 144 L 528 143 L 529 142 L 530 142 L 530 141 L 531 140 L 532 140 L 535 137 L 535 136 L 536 135 L 537 135 L 537 134 L 538 133 L 539 133 L 550 122 L 551 122 L 555 118 L 556 118 L 559 115 L 560 115 L 563 112 L 564 112 L 565 111 L 566 111 L 569 108 L 570 108 L 571 107 L 572 107 L 574 105 L 575 105 L 576 104 L 577 104 L 578 103 L 579 103 L 580 102 L 581 102 L 582 101 L 583 101 L 584 100 L 585 100 L 586 99 L 587 99 L 588 98 L 589 98 L 590 97 Z" fill="#2397FF" stroke="none" /></svg>