<?xml version="1.0" encoding="utf-8" ?>
<svg xmlns="http://www.w3.org/2000/svg" xmlns:xlink="http://www.w3.org/1999/xlink" width="386" height="386">
	<path fill="#2397FF" transform="matrix(0.376953 0 0 0.376953 -6.10352e-05 0)" d="M593.566 421.187C593.7 421.169 593.832 421.146 593.966 421.134Q595.806 420.989 597.65 420.93Q599.495 420.87 601.34 420.895Q603.185 420.92 605.027 421.03Q606.869 421.139 608.704 421.334Q610.54 421.528 612.364 421.807Q614.188 422.085 615.998 422.447Q617.807 422.809 619.598 423.254Q621.389 423.699 623.158 424.226Q624.927 424.752 626.669 425.36Q628.412 425.967 630.124 426.654Q631.837 427.341 633.517 428.106Q635.196 428.871 636.839 429.712Q638.481 430.553 640.083 431.469Q641.685 432.385 643.243 433.374Q644.802 434.362 646.313 435.421Q647.824 436.481 649.285 437.608C668.581 452.539 682.604 475.271 685.512 499.675C688.579 525.407 681.781 550.75 665.693 571.14Q665.032 571.976 664.352 572.795Q663.671 573.615 662.97 574.417Q662.269 575.219 661.548 576.004Q660.827 576.789 660.088 577.555Q659.348 578.322 658.589 579.07Q657.831 579.818 657.054 580.548Q656.278 581.277 655.483 581.987Q654.689 582.696 653.877 583.386Q653.065 584.076 652.236 584.746Q651.408 585.416 650.563 586.065Q649.718 586.714 648.857 587.342Q647.997 587.97 647.121 588.576Q646.245 589.183 645.354 589.767Q644.464 590.352 643.559 590.914Q642.654 591.477 641.736 592.017Q640.817 592.557 639.886 593.074Q638.954 593.591 638.01 594.085Q637.066 594.579 636.11 595.049Q635.154 595.52 634.187 595.967Q633.22 596.413 632.242 596.836Q631.264 597.259 630.276 597.657Q629.288 598.055 628.29 598.429Q627.293 598.803 626.286 599.152Q625.28 599.501 624.265 599.825Q623.25 600.15 622.227 600.449Q621.205 600.747 620.175 601.021Q619.145 601.295 618.109 601.543Q617.073 601.791 616.031 602.013Q614.989 602.236 613.942 602.432Q612.895 602.629 611.844 602.8Q610.792 602.97 609.736 603.115Q608.681 603.259 607.622 603.378C586.093 604.607 565.34 599.649 548.237 586.023Q547.336 585.302 546.454 584.559Q545.571 583.816 544.707 583.052Q543.843 582.288 542.997 581.502Q542.152 580.717 541.326 579.912Q540.501 579.106 539.695 578.28Q538.889 577.454 538.104 576.609Q537.319 575.764 536.555 574.9Q535.79 574.036 535.047 573.153Q534.305 572.27 533.584 571.37Q532.863 570.469 532.164 569.551Q531.465 568.633 530.789 567.698Q530.113 566.763 529.46 565.812Q528.807 564.861 528.178 563.894Q527.548 562.927 526.943 561.945Q526.337 560.963 525.756 559.967Q525.175 558.97 524.618 557.96Q524.062 556.949 523.53 555.926Q522.998 554.902 522.492 553.865Q521.985 552.829 521.504 551.78Q521.023 550.731 520.568 549.671Q520.113 548.611 519.684 547.54Q519.255 546.469 518.853 545.388Q518.45 544.307 518.074 543.216Q517.698 542.125 517.349 541.026Q517 539.926 516.678 538.818Q516.356 537.711 516.061 536.595Q515.766 535.48 515.499 534.358Q515.232 533.235 514.992 532.107Q514.752 530.978 514.54 529.844Q514.328 528.71 514.144 527.572Q513.96 526.433 513.803 525.29Q513.647 524.146 513.519 523C510.91 498.704 517.639 473.455 533.053 454.354C548.763 434.886 568.777 423.819 593.566 421.187ZM605.744 568.088Q607.111 567.945 608.47 567.736Q609.829 567.526 611.176 567.25Q612.522 566.974 613.854 566.633Q615.186 566.291 616.499 565.884Q617.812 565.477 619.104 565.007Q620.396 564.536 621.663 564.003Q622.93 563.469 624.169 562.874Q625.408 562.279 626.617 561.624Q627.826 560.969 629.001 560.256Q630.176 559.542 631.314 558.772Q632.453 558.001 633.552 557.176Q634.652 556.35 635.709 555.472Q636.767 554.594 637.78 553.665Q638.793 552.735 639.76 551.758Q640.726 550.78 641.643 549.756Q642.561 548.732 643.426 547.664Q644.292 546.596 645.105 545.487Q645.917 544.378 646.674 543.231Q647.431 542.083 648.131 540.9Q648.831 539.716 649.472 538.5Q650.113 537.284 650.693 536.038Q651.274 534.792 651.792 533.518Q652.311 532.245 652.766 530.948Q653.222 529.651 653.613 528.333Q654.004 527.015 654.33 525.68Q654.656 524.344 654.917 522.994Q655.177 521.644 655.37 520.283Q655.564 518.922 655.691 517.553Q655.817 516.184 655.877 514.811Q655.936 513.437 655.928 512.062Q655.919 510.688 655.844 509.315Q655.768 507.942 655.625 506.575Q655.482 505.208 655.272 503.849Q655.062 502.49 654.786 501.144Q654.51 499.797 654.168 498.465Q653.826 497.134 653.419 495.821Q653.012 494.507 652.541 493.216Q652.07 491.924 651.536 490.657Q651.002 489.39 650.407 488.151Q649.812 486.912 649.156 485.703Q648.501 484.495 647.787 483.32Q647.073 482.145 646.303 481.007Q645.532 479.868 644.706 478.769Q643.881 477.67 643.002 476.612Q642.124 475.555 641.194 474.542Q640.265 473.529 639.287 472.563Q638.309 471.597 637.284 470.68Q636.26 469.763 635.192 468.897Q634.124 468.031 633.015 467.219Q631.906 466.407 630.758 465.65Q629.61 464.893 628.427 464.194Q627.243 463.494 626.027 462.854Q624.81 462.213 623.564 461.633Q622.318 461.053 621.044 460.534Q619.771 460.016 618.474 459.561Q617.177 459.106 615.859 458.715Q614.541 458.324 613.205 457.998Q611.869 457.672 610.519 457.412Q609.169 457.153 607.808 456.959Q606.447 456.766 605.078 456.64Q603.709 456.513 602.336 456.455Q600.962 456.396 599.587 456.404Q598.213 456.413 596.84 456.489Q595.467 456.565 594.1 456.708Q592.733 456.851 591.375 457.061Q590.017 457.271 588.67 457.548Q587.324 457.824 585.993 458.167Q584.662 458.509 583.349 458.916Q582.037 459.323 580.745 459.794Q579.454 460.265 578.188 460.799Q576.921 461.333 575.683 461.928Q574.444 462.523 573.236 463.178Q572.028 463.834 570.853 464.548Q569.679 465.261 568.541 466.032Q567.403 466.802 566.304 467.628Q565.205 468.453 564.148 469.332Q563.091 470.21 562.078 471.139Q561.066 472.069 560.1 473.046Q559.134 474.024 558.217 475.048Q557.3 476.072 556.435 477.14Q555.57 478.207 554.758 479.316Q553.946 480.425 553.189 481.573Q552.433 482.72 551.733 483.903Q551.034 485.086 550.393 486.302Q549.753 487.518 549.173 488.764Q548.593 490.01 548.075 491.283Q547.556 492.556 547.101 493.853Q546.646 495.15 546.255 496.467Q545.864 497.785 545.538 499.12Q545.212 500.455 544.952 501.805Q544.692 503.154 544.499 504.515Q544.305 505.876 544.179 507.244Q544.052 508.613 543.993 509.986Q543.934 511.359 543.942 512.733Q543.951 514.108 544.026 515.48Q544.102 516.852 544.245 518.219Q544.388 519.586 544.598 520.944Q544.807 522.302 545.084 523.649Q545.36 524.995 545.702 526.326Q546.044 527.657 546.45 528.97Q546.857 530.283 547.328 531.574Q547.799 532.865 548.332 534.132Q548.866 535.399 549.461 536.637Q550.056 537.876 550.711 539.085Q551.366 540.293 552.079 541.467Q552.793 542.642 553.563 543.78Q554.333 544.918 555.159 546.017Q555.984 547.116 556.862 548.174Q557.74 549.231 558.669 550.244Q559.598 551.257 560.575 552.223Q561.553 553.189 562.577 554.106Q563.601 555.023 564.668 555.888Q565.735 556.754 566.844 557.566Q567.953 558.378 569.1 559.135Q570.247 559.892 571.43 560.592Q572.613 561.291 573.829 561.932Q575.045 562.573 576.291 563.153Q577.536 563.734 578.809 564.252Q580.082 564.771 581.379 565.226Q582.675 565.682 583.993 566.073Q585.31 566.464 586.645 566.79Q587.981 567.117 589.33 567.377Q590.68 567.637 592.04 567.831Q593.401 568.025 594.769 568.151Q596.138 568.278 597.511 568.338Q598.884 568.397 600.258 568.389Q601.633 568.381 603.005 568.306Q604.377 568.231 605.744 568.088Z"/>
	<path fill="#2397FF" transform="matrix(0.376953 0 0 0.376953 -6.10352e-05 0)" d="M595.784 491.611Q596.299 491.508 596.819 491.431Q597.339 491.353 597.861 491.302Q598.384 491.25 598.909 491.224Q599.434 491.198 599.959 491.198Q600.485 491.199 601.009 491.225Q601.534 491.251 602.057 491.303Q602.58 491.355 603.099 491.432Q603.619 491.51 604.134 491.613Q604.649 491.716 605.159 491.845Q605.668 491.974 606.171 492.127Q606.673 492.281 607.167 492.459Q607.662 492.637 608.147 492.839Q608.631 493.041 609.106 493.267Q609.58 493.493 610.043 493.742Q610.505 493.992 610.955 494.263Q611.405 494.535 611.84 494.828Q612.276 495.122 612.697 495.437Q613.118 495.751 613.522 496.086Q613.927 496.421 614.315 496.776Q614.703 497.131 615.072 497.504Q615.442 497.877 615.793 498.268Q616.144 498.66 616.475 499.068Q616.806 499.475 617.116 499.899Q617.427 500.323 617.716 500.762Q618.005 501.2 618.273 501.653Q618.54 502.105 618.784 502.57Q619.029 503.035 619.25 503.511Q619.472 503.988 619.669 504.475Q619.867 504.962 620.04 505.458Q620.214 505.954 620.362 506.458Q620.511 506.962 620.634 507.472Q620.758 507.983 620.856 508.499Q620.954 509.015 621.027 509.535Q621.099 510.056 621.146 510.579Q621.193 511.102 621.214 511.627Q621.235 512.152 621.23 512.678Q621.225 513.203 621.194 513.728Q621.163 514.252 621.106 514.774Q621.05 515.297 620.967 515.815Q620.885 516.334 620.777 516.849Q620.669 517.363 620.536 517.871Q620.402 518.379 620.244 518.88Q620.086 519.381 619.903 519.874Q619.721 520.366 619.514 520.849Q619.307 521.332 619.077 521.805Q618.846 522.277 618.593 522.737Q618.34 523.197 618.064 523.645Q617.788 524.092 617.491 524.525Q617.193 524.958 616.875 525.376Q616.556 525.793 616.217 526.195Q615.879 526.597 615.52 526.981Q615.162 527.365 614.785 527.732Q614.409 528.098 614.014 528.445Q613.62 528.792 613.209 529.12Q612.798 529.447 612.372 529.753Q611.945 530.06 611.504 530.345Q611.062 530.631 610.608 530.894Q610.153 531.157 609.686 531.397Q609.218 531.637 608.74 531.854Q608.261 532.071 607.773 532.264Q607.284 532.457 606.787 532.626Q606.289 532.795 605.784 532.939Q605.279 533.083 604.767 533.202Q604.255 533.321 603.738 533.414Q603.227 533.506 602.712 533.574Q602.197 533.641 601.68 533.683Q601.162 533.725 600.643 533.742Q600.124 533.759 599.605 533.75Q599.086 533.742 598.568 533.708Q598.05 533.674 597.534 533.615Q597.018 533.556 596.505 533.472Q595.993 533.388 595.485 533.278Q594.978 533.169 594.476 533.036Q593.974 532.902 593.48 532.744Q592.985 532.586 592.499 532.404Q592.012 532.222 591.535 532.017Q591.059 531.811 590.592 531.583Q590.126 531.354 589.671 531.103Q589.217 530.852 588.775 530.58Q588.333 530.307 587.905 530.013Q587.477 529.719 587.064 529.404Q586.651 529.089 586.254 528.755Q585.856 528.421 585.476 528.068Q585.095 527.714 584.733 527.343Q584.37 526.971 584.026 526.583Q583.681 526.194 583.356 525.789Q583.031 525.384 582.727 524.963Q582.422 524.543 582.138 524.108Q581.854 523.673 581.592 523.225Q581.33 522.777 581.089 522.317Q580.849 521.856 580.632 521.385Q580.414 520.913 580.22 520.432Q580.026 519.95 579.856 519.459Q579.685 518.969 579.539 518.471Q579.393 517.973 579.271 517.468Q579.149 516.963 579.052 516.453Q578.955 515.943 578.883 515.429Q578.811 514.914 578.764 514.397Q578.717 513.88 578.695 513.361Q578.674 512.843 578.677 512.323Q578.681 511.804 578.71 511.286Q578.739 510.767 578.794 510.251Q578.848 509.734 578.927 509.221Q579.007 508.708 579.111 508.199Q579.215 507.691 579.345 507.188Q579.474 506.685 579.627 506.189Q579.78 505.693 579.958 505.205Q580.135 504.717 580.336 504.238Q580.537 503.759 580.762 503.291Q580.986 502.822 581.232 502.366Q581.479 501.909 581.748 501.464Q582.017 501.02 582.307 500.589Q582.597 500.159 582.907 499.743Q583.218 499.327 583.549 498.926Q583.88 498.526 584.229 498.142Q584.579 497.758 584.947 497.392Q585.315 497.026 585.701 496.678Q586.086 496.33 586.488 496.002Q586.891 495.673 587.308 495.364Q587.726 495.056 588.158 494.768Q588.59 494.48 589.036 494.214Q589.481 493.947 589.939 493.703Q590.398 493.458 590.867 493.236Q591.337 493.015 591.816 492.816Q592.296 492.617 592.785 492.443Q593.274 492.268 593.771 492.117Q594.268 491.966 594.771 491.839Q595.275 491.713 595.784 491.611Z"/>
	<path fill="#2397FF" transform="matrix(0.376953 0 0 0.376953 -6.10352e-05 0)" d="M491.351 421.168C496.534 420.858 501.854 420.71 507.024 421.231C510.754 421.608 515.819 422.389 518.215 425.596C519.788 427.7 519.739 430.674 519.328 433.141C516.831 448.139 494.101 482.459 483.16 493.848C477.128 500.127 470.014 505.185 462.882 510.116C468.747 514.408 474.607 518.529 479.576 523.888C492.645 537.98 515.022 575.217 519.879 594.029L519.523 594.885C518.598 597.139 517.707 598.847 515.662 600.282C511.797 602.994 506.165 602.634 501.662 602.627C492.675 602.614 482.69 601.666 474.783 596.934C469.262 593.631 461.91 583.521 456.142 582.549C455.228 583.791 455.501 585.864 455.498 587.375Q455.599 594.901 455.448 602.427C439.55 602.953 422.719 596.359 410.68 586.086C392.286 570.389 383.952 547.986 382.059 524.404C379.896 497.452 382.759 468.733 401.071 447.414C411.238 435.579 431.042 422.994 446.904 422.114C449.24 421.985 452.038 422.15 453.784 423.925C456.867 427.061 455.566 435.586 455.448 439.731C465.737 428.602 476.347 423.194 491.351 421.168ZM452.881 568.012L452.404 514.977C432.041 514.38 411.17 513.84 390.82 514.705C393.99 519.584 398.427 523.998 402.267 528.375C413.766 541.482 433.251 564.221 450.605 567.661C451.347 567.809 452.125 567.959 452.881 568.012ZM393.875 508.062C413.332 508.389 432.898 508.749 452.348 508.041C452.116 502.978 452.154 455.841 451.969 455.671C430.589 462.77 417.77 480.427 403.122 496.232C399.64 499.989 395.104 503.174 392.222 507.373L392.24 507.891L393.875 508.062Z"/>
	<path fill="#2397FF" transform="matrix(0.376953 0 0 0.376953 -6.10352e-05 0)" d="M313.901 420.986C314.764 420.981 315.635 420.982 316.494 421.072C318.533 421.286 321.32 421.97 322.547 423.789C326.196 429.204 328.173 437.469 330.486 443.604L344.384 479.873L370.01 545.492C375.291 558.725 381.081 571.769 385.949 585.164C387.222 588.666 389.776 594.053 388.968 597.811C388.394 600.481 385.931 601.58 383.803 602.861C376.951 603.246 365.454 604.758 359.537 601.056C353.372 597.199 351.517 586.6 349.965 580.002C338.621 580.398 327.112 579.988 315.752 579.956L281.879 579.768C280.174 585.926 278.065 598.727 272.187 602.129C268.805 604.086 250.695 603.638 246.695 602.537C244.677 601.982 242.631 600.962 241.796 598.908C241.111 597.222 241.997 594.382 242.472 592.715C244.563 585.383 248.053 578.093 250.887 571.01Q258.82 551.553 266.306 531.919C275.006 509.595 284.281 487.51 293.135 465.252C298.013 452.988 303.254 436.764 309.417 425.532C310.644 423.295 311.544 422.02 313.901 420.986ZM294.449 547.385C301.091 547.126 307.732 547.462 314.375 547.475L337.544 547.48Q326.797 519.772 316.703 491.82C307.985 509.352 301.77 529.13 294.449 547.385Z"/>
	<path fill="#2397FF" transform="matrix(0.376953 0 0 0.376953 -6.10352e-05 0)" d="M753.825 421.008C755.232 421.002 757.181 421.048 758.423 421.761C760.223 422.794 761.713 425.228 762.606 427.034C765.377 432.638 767.55 438.961 769.821 444.81L782.251 477.004L822.975 582.754C824.235 586.054 828.177 595.791 826.446 599.136C825.533 600.898 823.606 601.921 821.778 602.451C816.526 603.974 801.306 603.888 796.677 601.163C790.442 597.491 788.891 586.996 787.058 580.474C776.31 579.547 765.176 580.057 754.375 580.038Q738.601 579.976 722.828 580.207C720.967 587.379 719.138 593.725 715.047 599.961C708.347 603.666 695.349 604.263 688.011 602.477C685.853 601.952 683.69 601.029 682.636 598.947C681.716 597.131 682.992 593.038 683.558 591.06C685.836 583.099 689.534 575.353 692.717 567.719Q700.931 548.182 708.844 528.522C716.667 508.643 724.649 488.794 732.233 468.825C737.386 455.26 741.978 441.065 748.077 427.912C749.5 424.842 750.813 422.696 753.825 421.008ZM733.626 547.972L757.625 548.149Q767.268 548.108 776.909 548.278C775.081 542.634 757.497 494.384 755.711 492.364C751.424 499.435 748.883 508.362 745.949 516.111L733.626 547.972Z"/>
	<path fill="#2397FF" transform="matrix(0.376953 0 0 0.376953 -6.10352e-05 0)" d="M204.261 421.07C209.323 420.791 214.541 420.511 219.609 420.77C223.33 420.96 227.022 421.615 229.589 424.505C231.916 432.362 230.674 445.9 230.691 454.401L230.773 499.314L230.727 554.151C230.824 566.416 231.326 578.755 230.958 591.014C230.885 593.454 230.605 596.087 229.666 598.36C228.558 601.047 226.532 601.692 224.019 602.772C217.58 603.517 208.65 604.27 202.487 602.305C200.877 601.792 198.944 600.886 198.238 599.249C197.318 597.115 197.196 594.012 197.094 591.674C196.701 582.613 196.999 573.434 196.994 564.358L196.961 512.235L196.861 456.388C196.877 448.034 196.643 439.595 196.98 431.25C197.056 429.371 197.123 426.729 198.013 425.054C199.269 422.69 201.849 421.781 204.261 421.07Z"/>
</svg>
